<?xml version="1.0" encoding="UTF-8"?>
<svg id="Layer_2" xmlns="http://www.w3.org/2000/svg" viewBox="0 0 800 800">
  <defs>
    <style>
      .cls-1 {
        fill: #ff5c35;
      }

      .cls-2, .cls-3 {
        fill: #fff;
      }

      .cls-3 {
        font-family: Futura-Bold, Futura;
        font-size: 79.39px;
        font-weight: 700;
      }

      .cls-4 {
        fill: none;
        stroke: #ff5c35;
        stroke-miterlimit: 10;
        stroke-width: 20px;
      }

      .cls-5 {
        letter-spacing: .04em;
      }

      .cls-6 {
        letter-spacing: .04em;
      }

      .cls-7 {
        letter-spacing: .05em;
      }

      .cls-8 {
        letter-spacing: .03em;
      }

      .cls-9 {
        letter-spacing: .03em;
      }

      .cls-10 {
        letter-spacing: .03em;
      }
    </style>
  </defs>
  <g id="Layer_1-2" data-name="Layer_1">
    <rect class="cls-1" width="800" height="800" rx="90.64" ry="90.64"/>
    <rect class="cls-2" x="77.14" y="40.37" width="200" height="628.88" rx="62.05" ry="62.05"/>
    <rect class="cls-2" x="324.47" y="346.16" width="200" height="324" rx="66.38" ry="66.38"/>
    <rect class="cls-2" x="559.39" y="455.24" width="200" height="214" rx="67.55" ry="67.55"/>
    <text class="cls-3" transform="translate(102.4 765.31) scale(.97 1)"><tspan class="cls-6" x="0" y="0">A</tspan><tspan class="cls-9" x="67.16" y="0">na</tspan><tspan class="cls-5" x="180.77" y="0">l</tspan><tspan class="cls-9" x="208.4" y="0">y</tspan><tspan class="cls-7" x="265.64" y="0">t</tspan><tspan class="cls-9" x="298.99" y="0">ics Ha</tspan><tspan class="cls-8" x="567.01" y="0">r</tspan><tspan class="cls-10" x="606.63" y="0">i</tspan></text>
    <path class="cls-4" d="M174.2,434.98l-88.61,214.58c-1.35,4.94,26.79,29.4,31.91,29.4h567.64c7.01,0,60.12-6.22,41.1-19.13l-339.48-283.35c-70.75-67.34-186.93-35.03-212.56,58.5Z"/>
  </g>
</svg>